<?xml version="1.0" encoding="UTF-8" standalone="no"?>
<svg
   xmlns:dc="http://purl.org/dc/elements/1.1/"
   xmlns:cc="http://creativecommons.org/ns#"
   xmlns:rdf="http://www.w3.org/1999/02/22-rdf-syntax-ns#"
   xmlns:svg="http://www.w3.org/2000/svg"
   xmlns="http://www.w3.org/2000/svg"
   xmlns:sodipodi="http://sodipodi.sourceforge.net/DTD/sodipodi-0.dtd"
   xmlns:inkscape="http://www.inkscape.org/namespaces/inkscape"
   viewBox="0 0 512 512"
   version="1.1"
   id="svg8"
   sodipodi:docname="cil-link.svg"
   inkscape:version="0.92.5 (2060ec1f9f, 2020-04-08)">
  <metadata
     id="metadata14">
    <rdf:RDF>
      <cc:Work
         rdf:about="">
        <dc:format>image/svg+xml</dc:format>
        <dc:type
           rdf:resource="http://purl.org/dc/dcmitype/StillImage" />
      </cc:Work>
    </rdf:RDF>
  </metadata>
  <defs
     id="defs12" />
  <sodipodi:namedview
     pagecolor="#ffffff"
     bordercolor="#666666"
     borderopacity="1"
     objecttolerance="10"
     gridtolerance="10"
     guidetolerance="10"
     inkscape:pageopacity="0"
     inkscape:pageshadow="2"
     inkscape:window-width="1920"
     inkscape:window-height="1016"
     id="namedview10"
     showgrid="false"
     inkscape:zoom="1.3037281"
     inkscape:cx="168.92648"
     inkscape:cy="226.80926"
     inkscape:window-x="0"
     inkscape:window-y="27"
     inkscape:window-maximized="1"
     inkscape:current-layer="svg8" />
  <path
     inkscape:connector-curvature="0"
     fill="var(--ci-primary-color, currentColor)"
     d="m 355.64708,135.02849 -226.27417,226.27418 22.624,22.627 226.27758,-226.27377 z"
     class="ci-primary"
     id="path6"
     sodipodi:nodetypes="ccccc" />
  <path
     fill="var(--ci-primary-color, currentColor)"
     d="M457.47,55.833c-53.026-53.026-139.307-53.026-192.332,0L168.971,152,191.6,174.627,287.765,78.46A104,104,0,0,1,434.843,225.539l-96.167,96.167L361.3,344.333l96.167-96.167C510.5,195.14,510.5,108.86,457.47,55.833Z"
     class="ci-primary"
     id="path2" />
  <path
     fill="var(--ci-primary-color, currentColor)"
     d="M225.539,434.843a104,104,0,0,1-147.078,0h0a104,104,0,0,1,0-147.078l90.511-90.511-22.627-22.627L55.833,265.138A136,136,0,1,0,248.166,457.47l90.51-90.51-22.627-22.627Z"
     class="ci-primary"
     id="path4" />
</svg>
